<svg xmlns="http://www.w3.org/2000/svg" xmlns:xlink="http://www.w3.org/1999/xlink" width="130" zoomAndPan="magnify" viewBox="0 0 97.5 30.000001" height="40" preserveAspectRatio="xMidYMid meet" version="1.0"><defs><g/><clipPath id="8a048a07f0"><path d="M 2.054688 2.839844 L 30.363281 2.839844 L 30.363281 26.066406 L 2.054688 26.066406 Z M 2.054688 2.839844 " clip-rule="nonzero"/></clipPath><clipPath id="94d2f3c9fa"><path d="M 0.203125 0.839844 L 28.363281 0.839844 L 28.363281 24.066406 L 0.203125 24.066406 Z M 0.203125 0.839844 " clip-rule="nonzero"/></clipPath><clipPath id="5f87d3e6da"><rect x="0" width="29" y="0" height="25"/></clipPath><clipPath id="62f5fd8d36"><path d="M 33 2 L 95.683594 2 L 95.683594 21 L 33 21 Z M 33 2 " clip-rule="nonzero"/></clipPath><clipPath id="67cecb0373"><path d="M 0.148438 1 L 14 1 L 14 14 L 0.148438 14 Z M 0.148438 1 " clip-rule="nonzero"/></clipPath><clipPath id="106faddc0b"><path d="M 54 5 L 62.683594 5 L 62.683594 14 L 54 14 Z M 54 5 " clip-rule="nonzero"/></clipPath><clipPath id="90ccb9240c"><path d="M 62 13 L 62.683594 13 L 62.683594 14 L 62 14 Z M 62 13 " clip-rule="nonzero"/></clipPath><clipPath id="5b4f601838"><rect x="0" width="63" y="0" height="19"/></clipPath><clipPath id="d755b1e1ce"><rect x="0" width="63" y="0" height="10"/></clipPath></defs><g clip-path="url(#8a048a07f0)"><g transform="matrix(1, 0, 0, 1, 2, 2)"><g clip-path="url(#5f87d3e6da)"><g clip-path="url(#94d2f3c9fa)"><path fill="#ffffff" d="M 23.335938 14.007812 L 23.335938 19.179688 L 14.285156 24.121094 L 5.230469 19.179688 L 5.230469 14.007812 L 14.285156 18.949219 Z M 14.285156 0.839844 L 28.511719 8.601562 L 14.285156 16.359375 L 2.644531 10.011719 L 2.644531 18.949219 L 0.0546875 18.949219 L 0.0546875 8.601562 Z M 14.285156 0.839844 " fill-opacity="1" fill-rule="nonzero"/></g></g></g></g><g clip-path="url(#62f5fd8d36)"><g transform="matrix(1, 0, 0, 1, 33, 2)"><g clip-path="url(#5b4f601838)"><g clip-path="url(#67cecb0373)"><g fill="#ffffff" fill-opacity="1"><g transform="translate(0.497389, 13.51472)"><g><path d="M 10.625 0 L 10.0625 -7 L 9.984375 -7 L 7.578125 -0.078125 L 5.96875 -0.078125 L 3.546875 -7 L 3.484375 -7 L 2.921875 0 L 0.234375 0 L 1.28125 -11.8125 L 4.15625 -11.8125 L 6.765625 -5 L 9.390625 -11.8125 L 12.25 -11.8125 L 13.3125 0 Z M 10.625 0 "/></g></g></g></g><g fill="#ffffff" fill-opacity="1"><g transform="translate(14.029921, 13.51472)"><g><path d="M 1.09375 -11.421875 C 1.394531 -11.722656 1.75 -11.875 2.15625 -11.875 C 2.570312 -11.875 2.925781 -11.722656 3.21875 -11.421875 C 3.507812 -11.128906 3.65625 -10.78125 3.65625 -10.375 C 3.65625 -9.96875 3.507812 -9.613281 3.21875 -9.3125 C 2.925781 -9.019531 2.570312 -8.875 2.15625 -8.875 C 1.75 -8.875 1.394531 -9.019531 1.09375 -9.3125 C 0.800781 -9.613281 0.65625 -9.96875 0.65625 -10.375 C 0.65625 -10.78125 0.800781 -11.128906 1.09375 -11.421875 Z M 0.859375 -7.34375 L 0.859375 0 L 3.390625 0 L 3.390625 -7.34375 Z M 0.859375 -7.34375 "/></g></g></g><g fill="#ffffff" fill-opacity="1"><g transform="translate(18.35003, 13.51472)"><g><path d="M 0.859375 0 L 0.859375 -7.34375 L 3.390625 -7.34375 L 3.390625 -6.5625 L 3.421875 -6.5625 C 4.078125 -7.226562 4.78125 -7.5625 5.53125 -7.5625 C 5.882812 -7.5625 6.238281 -7.507812 6.59375 -7.40625 C 6.957031 -7.3125 7.300781 -7.164062 7.625 -6.96875 C 7.957031 -6.769531 8.226562 -6.484375 8.4375 -6.109375 C 8.644531 -5.742188 8.75 -5.320312 8.75 -4.84375 L 8.75 0 L 6.21875 0 L 6.21875 -4.15625 C 6.21875 -4.53125 6.09375 -4.859375 5.84375 -5.140625 C 5.601562 -5.429688 5.285156 -5.578125 4.890625 -5.578125 C 4.515625 -5.578125 4.171875 -5.425781 3.859375 -5.125 C 3.546875 -4.832031 3.390625 -4.507812 3.390625 -4.15625 L 3.390625 0 Z M 0.859375 0 "/></g></g></g><g fill="#ffffff" fill-opacity="1"><g transform="translate(27.805635, 13.51472)"><g><path d="M 1.359375 -0.90625 C 0.671875 -1.65625 0.328125 -2.570312 0.328125 -3.65625 C 0.328125 -4.75 0.671875 -5.671875 1.359375 -6.421875 C 2.046875 -7.179688 2.921875 -7.5625 3.984375 -7.5625 C 4.953125 -7.5625 5.753906 -7.253906 6.390625 -6.640625 L 6.390625 -12.3125 L 8.921875 -12.3125 L 8.921875 0 L 6.40625 0 L 6.40625 -0.828125 L 6.390625 -0.828125 C 5.753906 -0.128906 4.953125 0.21875 3.984375 0.21875 C 2.921875 0.21875 2.046875 -0.15625 1.359375 -0.90625 Z M 3.5 -4.90625 C 3.175781 -4.582031 3.015625 -4.164062 3.015625 -3.65625 C 3.015625 -3.15625 3.171875 -2.742188 3.484375 -2.421875 C 3.804688 -2.109375 4.222656 -1.953125 4.734375 -1.953125 C 5.234375 -1.953125 5.640625 -2.113281 5.953125 -2.4375 C 6.273438 -2.757812 6.4375 -3.164062 6.4375 -3.65625 C 6.4375 -4.164062 6.269531 -4.582031 5.9375 -4.90625 C 5.613281 -5.226562 5.210938 -5.390625 4.734375 -5.390625 C 4.242188 -5.390625 3.832031 -5.226562 3.5 -4.90625 Z M 3.5 -4.90625 "/></g></g></g><g fill="#ffffff" fill-opacity="1"><g transform="translate(37.575952, 13.51472)"><g><path d="M 3.25 -7.34375 L 3.25 -3.84375 C 3.25 -3.125 3.359375 -2.609375 3.578125 -2.296875 C 3.796875 -1.992188 4.164062 -1.84375 4.6875 -1.84375 C 5.21875 -1.84375 5.59375 -1.992188 5.8125 -2.296875 C 6.03125 -2.609375 6.140625 -3.125 6.140625 -3.84375 L 6.140625 -7.34375 L 8.671875 -7.34375 L 8.671875 -3.234375 C 8.671875 -2.015625 8.351562 -1.132812 7.71875 -0.59375 C 7.082031 -0.0507812 6.070312 0.21875 4.6875 0.21875 C 3.3125 0.21875 2.304688 -0.0507812 1.671875 -0.59375 C 1.035156 -1.132812 0.71875 -2.015625 0.71875 -3.234375 L 0.71875 -7.34375 Z M 3.25 -7.34375 "/></g></g></g><g fill="#ffffff" fill-opacity="1"><g transform="translate(46.960033, 13.51472)"><g><path d="M 0.859375 0 L 0.859375 -7.34375 L 3.390625 -7.34375 L 3.390625 -6.28125 L 3.421875 -6.28125 C 3.441406 -6.320312 3.472656 -6.367188 3.515625 -6.421875 C 3.554688 -6.484375 3.644531 -6.582031 3.78125 -6.71875 C 3.925781 -6.863281 4.082031 -6.992188 4.25 -7.109375 C 4.414062 -7.222656 4.625 -7.328125 4.875 -7.421875 C 5.132812 -7.515625 5.398438 -7.5625 5.671875 -7.5625 C 5.941406 -7.5625 6.210938 -7.519531 6.484375 -7.4375 C 6.753906 -7.363281 6.953125 -7.289062 7.078125 -7.21875 L 7.265625 -7.09375 L 6.21875 -4.953125 C 5.894531 -5.222656 5.453125 -5.359375 4.890625 -5.359375 C 4.585938 -5.359375 4.328125 -5.289062 4.109375 -5.15625 C 3.890625 -5.019531 3.734375 -4.851562 3.640625 -4.65625 C 3.546875 -4.46875 3.476562 -4.304688 3.4375 -4.171875 C 3.40625 -4.046875 3.390625 -3.941406 3.390625 -3.859375 L 3.390625 0 Z M 0.859375 0 "/></g></g></g><g clip-path="url(#106faddc0b)"><g fill="#ffffff" fill-opacity="1"><g transform="translate(53.998079, 13.51472)"><g><path d="M 8.28125 -3.328125 L 2.96875 -3.328125 C 2.96875 -2.804688 3.132812 -2.421875 3.46875 -2.171875 C 3.800781 -1.921875 4.160156 -1.796875 4.546875 -1.796875 C 4.960938 -1.796875 5.285156 -1.847656 5.515625 -1.953125 C 5.753906 -2.066406 6.03125 -2.289062 6.34375 -2.625 L 8.171875 -1.703125 C 7.410156 -0.421875 6.140625 0.21875 4.359375 0.21875 C 3.253906 0.21875 2.304688 -0.160156 1.515625 -0.921875 C 0.722656 -1.679688 0.328125 -2.59375 0.328125 -3.65625 C 0.328125 -4.726562 0.722656 -5.644531 1.515625 -6.40625 C 2.304688 -7.175781 3.253906 -7.5625 4.359375 -7.5625 C 5.523438 -7.5625 6.472656 -7.222656 7.203125 -6.546875 C 7.929688 -5.867188 8.296875 -4.90625 8.296875 -3.65625 C 8.296875 -3.488281 8.289062 -3.378906 8.28125 -3.328125 Z M 3.03125 -4.71875 L 5.828125 -4.71875 C 5.765625 -5.101562 5.613281 -5.394531 5.375 -5.59375 C 5.132812 -5.800781 4.820312 -5.90625 4.4375 -5.90625 C 4.019531 -5.90625 3.6875 -5.796875 3.4375 -5.578125 C 3.1875 -5.359375 3.050781 -5.070312 3.03125 -4.71875 Z M 3.03125 -4.71875 "/></g></g></g></g><g clip-path="url(#90ccb9240c)"><g fill="#ffffff" fill-opacity="1"><g transform="translate(62.624977, 13.51472)"><g/></g></g></g></g></g></g><g transform="matrix(1, 0, 0, 1, 32, 17)"><g clip-path="url(#d755b1e1ce)"><g fill="#ffffff" fill-opacity="1"><g transform="translate(0.851828, 7.282421)"><g><path d="M 3.71875 -2.796875 L 4.078125 -4.484375 L 4.953125 -4.484375 L 4 0 L 3.125 0 L 3.546875 -2.046875 L 1.546875 -2.046875 L 1.109375 0 L 0.21875 0 L 1.171875 -4.484375 L 2.0625 -4.484375 L 1.703125 -2.796875 Z M 3.71875 -2.796875 "/></g></g></g><g fill="#ffffff" fill-opacity="1"><g transform="translate(6.40058, 7.282421)"><g><path d="M 1.203125 0.0625 C 1.003906 0.0625 0.835938 0.0234375 0.703125 -0.046875 C 0.578125 -0.128906 0.476562 -0.242188 0.40625 -0.390625 C 0.34375 -0.535156 0.3125 -0.707031 0.3125 -0.90625 C 0.3125 -1.019531 0.320312 -1.144531 0.34375 -1.28125 L 0.796875 -3.390625 L 1.640625 -3.390625 L 1.1875 -1.25 C 1.175781 -1.1875 1.171875 -1.128906 1.171875 -1.078125 C 1.171875 -0.941406 1.207031 -0.835938 1.28125 -0.765625 C 1.363281 -0.691406 1.476562 -0.65625 1.625 -0.65625 C 2.113281 -0.65625 2.425781 -0.972656 2.5625 -1.609375 L 2.9375 -3.390625 L 3.78125 -3.390625 L 3.0625 0 L 2.25 0 L 2.359375 -0.5 L 2.296875 -0.515625 C 2.160156 -0.316406 2.007812 -0.171875 1.84375 -0.078125 C 1.675781 0.015625 1.460938 0.0625 1.203125 0.0625 Z M 1.203125 0.0625 "/></g></g></g><g fill="#ffffff" fill-opacity="1"><g transform="translate(10.914827, 7.282421)"><g><path d="M 1.234375 0.0625 C 1.023438 0.0625 0.832031 0.0351562 0.65625 -0.015625 C 0.488281 -0.078125 0.34375 -0.15625 0.21875 -0.25 C 0.09375 -0.351562 0 -0.46875 -0.0625 -0.59375 L 0.5 -1.078125 L 0.5625 -1.078125 C 0.644531 -0.921875 0.753906 -0.804688 0.890625 -0.734375 C 1.023438 -0.660156 1.179688 -0.625 1.359375 -0.625 C 1.546875 -0.625 1.6875 -0.660156 1.78125 -0.734375 C 1.882812 -0.804688 1.9375 -0.910156 1.9375 -1.046875 C 1.9375 -1.128906 1.910156 -1.195312 1.859375 -1.25 C 1.804688 -1.300781 1.710938 -1.347656 1.578125 -1.390625 L 1.15625 -1.515625 C 0.945312 -1.566406 0.773438 -1.660156 0.640625 -1.796875 C 0.515625 -1.929688 0.453125 -2.109375 0.453125 -2.328125 C 0.453125 -2.410156 0.460938 -2.492188 0.484375 -2.578125 C 0.535156 -2.859375 0.679688 -3.070312 0.921875 -3.21875 C 1.171875 -3.375 1.5 -3.453125 1.90625 -3.453125 C 2.1875 -3.453125 2.421875 -3.40625 2.609375 -3.3125 C 2.804688 -3.21875 2.957031 -3.09375 3.0625 -2.9375 L 2.53125 -2.46875 L 2.46875 -2.46875 C 2.394531 -2.570312 2.300781 -2.648438 2.1875 -2.703125 C 2.082031 -2.753906 1.957031 -2.78125 1.8125 -2.78125 C 1.644531 -2.78125 1.515625 -2.753906 1.421875 -2.703125 C 1.328125 -2.660156 1.269531 -2.585938 1.25 -2.484375 C 1.25 -2.460938 1.25 -2.441406 1.25 -2.421875 C 1.25 -2.359375 1.28125 -2.296875 1.34375 -2.234375 C 1.40625 -2.179688 1.492188 -2.140625 1.609375 -2.109375 L 2 -2.015625 C 2.519531 -1.878906 2.78125 -1.601562 2.78125 -1.1875 C 2.78125 -1.101562 2.769531 -1.015625 2.75 -0.921875 C 2.675781 -0.585938 2.519531 -0.335938 2.28125 -0.171875 C 2.039062 -0.015625 1.691406 0.0625 1.234375 0.0625 Z M 1.234375 0.0625 "/></g></g></g><g fill="#ffffff" fill-opacity="1"><g transform="translate(14.634009, 7.282421)"><g><path d="M 1.6875 -2.71875 L 1.359375 -1.171875 C 1.347656 -1.109375 1.34375 -1.050781 1.34375 -1 C 1.34375 -0.894531 1.367188 -0.816406 1.421875 -0.765625 C 1.472656 -0.710938 1.550781 -0.6875 1.65625 -0.6875 C 1.726562 -0.6875 1.796875 -0.695312 1.859375 -0.71875 C 1.929688 -0.738281 2 -0.769531 2.0625 -0.8125 L 2.125 -0.8125 L 2.234375 -0.171875 C 2.128906 -0.0976562 2.015625 -0.0390625 1.890625 0 C 1.773438 0.0390625 1.613281 0.0625 1.40625 0.0625 C 1.226562 0.0625 1.066406 0.03125 0.921875 -0.03125 C 0.785156 -0.101562 0.675781 -0.207031 0.59375 -0.34375 C 0.507812 -0.476562 0.46875 -0.640625 0.46875 -0.828125 C 0.46875 -0.941406 0.484375 -1.066406 0.515625 -1.203125 L 0.828125 -2.71875 L 0.3125 -2.71875 L 0.46875 -3.390625 L 0.984375 -3.390625 L 1.125 -4.046875 L 2 -4.1875 L 1.828125 -3.390625 L 2.78125 -3.390625 L 2.640625 -2.71875 Z M 1.6875 -2.71875 "/></g></g></g><g fill="#ffffff" fill-opacity="1"><g transform="translate(17.862032, 7.282421)"><g><path d="M 1.03125 0.0625 C 0.882812 0.0625 0.753906 0.03125 0.640625 -0.03125 C 0.535156 -0.09375 0.453125 -0.179688 0.390625 -0.296875 C 0.328125 -0.421875 0.296875 -0.570312 0.296875 -0.75 C 0.296875 -0.851562 0.304688 -0.960938 0.328125 -1.078125 L 1.109375 -4.734375 L 1.96875 -4.734375 L 1.15625 -0.96875 C 1.144531 -0.925781 1.140625 -0.894531 1.140625 -0.875 C 1.140625 -0.800781 1.15625 -0.742188 1.1875 -0.703125 C 1.226562 -0.671875 1.28125 -0.65625 1.34375 -0.65625 C 1.382812 -0.65625 1.429688 -0.664062 1.484375 -0.6875 L 1.53125 -0.671875 L 1.53125 -0.015625 C 1.40625 0.0351562 1.238281 0.0625 1.03125 0.0625 Z M 1.03125 0.0625 "/></g></g></g><g fill="#ffffff" fill-opacity="1"><g transform="translate(20.405501, 7.282421)"><g><path d="M 3.4375 -2.359375 C 3.363281 -1.984375 3.160156 -1.710938 2.828125 -1.546875 C 2.492188 -1.390625 2.085938 -1.3125 1.609375 -1.3125 C 1.441406 -1.3125 1.285156 -1.316406 1.140625 -1.328125 C 1.148438 -1.097656 1.207031 -0.925781 1.3125 -0.8125 C 1.425781 -0.707031 1.582031 -0.65625 1.78125 -0.65625 C 1.96875 -0.65625 2.125 -0.691406 2.25 -0.765625 C 2.375 -0.835938 2.484375 -0.953125 2.578125 -1.109375 L 2.65625 -1.109375 L 3.203125 -0.734375 C 3.097656 -0.566406 2.976562 -0.425781 2.84375 -0.3125 C 2.71875 -0.195312 2.554688 -0.101562 2.359375 -0.03125 C 2.160156 0.03125 1.914062 0.0625 1.625 0.0625 C 1.363281 0.0625 1.128906 0.0078125 0.921875 -0.09375 C 0.722656 -0.207031 0.566406 -0.367188 0.453125 -0.578125 C 0.335938 -0.796875 0.28125 -1.050781 0.28125 -1.34375 C 0.28125 -1.507812 0.300781 -1.6875 0.34375 -1.875 C 0.414062 -2.207031 0.546875 -2.488281 0.734375 -2.71875 C 0.921875 -2.957031 1.144531 -3.140625 1.40625 -3.265625 C 1.664062 -3.390625 1.945312 -3.453125 2.25 -3.453125 C 2.507812 -3.453125 2.726562 -3.410156 2.90625 -3.328125 C 3.09375 -3.253906 3.234375 -3.144531 3.328125 -3 C 3.421875 -2.863281 3.46875 -2.71875 3.46875 -2.5625 C 3.46875 -2.488281 3.457031 -2.421875 3.4375 -2.359375 Z M 2.171875 -2.78125 C 2.046875 -2.78125 1.921875 -2.75 1.796875 -2.6875 C 1.671875 -2.632812 1.554688 -2.546875 1.453125 -2.421875 C 1.359375 -2.304688 1.285156 -2.160156 1.234375 -1.984375 C 1.390625 -1.972656 1.535156 -1.96875 1.671875 -1.96875 C 1.953125 -1.96875 2.175781 -2 2.34375 -2.0625 C 2.507812 -2.132812 2.609375 -2.257812 2.640625 -2.4375 C 2.648438 -2.457031 2.65625 -2.476562 2.65625 -2.5 C 2.65625 -2.582031 2.613281 -2.648438 2.53125 -2.703125 C 2.445312 -2.753906 2.328125 -2.78125 2.171875 -2.78125 Z M 2.171875 -2.78125 "/></g></g></g><g fill="#ffffff" fill-opacity="1"><g transform="translate(24.683378, 7.282421)"><g/></g></g><g fill="#ffffff" fill-opacity="1"><g transform="translate(26.763315, 7.282421)"><g><path d="M 1.234375 0.0625 C 1.023438 0.0625 0.832031 0.0351562 0.65625 -0.015625 C 0.488281 -0.078125 0.34375 -0.15625 0.21875 -0.25 C 0.09375 -0.351562 0 -0.46875 -0.0625 -0.59375 L 0.5 -1.078125 L 0.5625 -1.078125 C 0.644531 -0.921875 0.753906 -0.804688 0.890625 -0.734375 C 1.023438 -0.660156 1.179688 -0.625 1.359375 -0.625 C 1.546875 -0.625 1.6875 -0.660156 1.78125 -0.734375 C 1.882812 -0.804688 1.9375 -0.910156 1.9375 -1.046875 C 1.9375 -1.128906 1.910156 -1.195312 1.859375 -1.25 C 1.804688 -1.300781 1.710938 -1.347656 1.578125 -1.390625 L 1.15625 -1.515625 C 0.945312 -1.566406 0.773438 -1.660156 0.640625 -1.796875 C 0.515625 -1.929688 0.453125 -2.109375 0.453125 -2.328125 C 0.453125 -2.410156 0.460938 -2.492188 0.484375 -2.578125 C 0.535156 -2.859375 0.679688 -3.070312 0.921875 -3.21875 C 1.171875 -3.375 1.5 -3.453125 1.90625 -3.453125 C 2.1875 -3.453125 2.421875 -3.40625 2.609375 -3.3125 C 2.804688 -3.21875 2.957031 -3.09375 3.0625 -2.9375 L 2.53125 -2.46875 L 2.46875 -2.46875 C 2.394531 -2.570312 2.300781 -2.648438 2.1875 -2.703125 C 2.082031 -2.753906 1.957031 -2.78125 1.8125 -2.78125 C 1.644531 -2.78125 1.515625 -2.753906 1.421875 -2.703125 C 1.328125 -2.660156 1.269531 -2.585938 1.25 -2.484375 C 1.25 -2.460938 1.25 -2.441406 1.25 -2.421875 C 1.25 -2.359375 1.28125 -2.296875 1.34375 -2.234375 C 1.40625 -2.179688 1.492188 -2.140625 1.609375 -2.109375 L 2 -2.015625 C 2.519531 -1.878906 2.78125 -1.601562 2.78125 -1.1875 C 2.78125 -1.101562 2.769531 -1.015625 2.75 -0.921875 C 2.675781 -0.585938 2.519531 -0.335938 2.28125 -0.171875 C 2.039062 -0.015625 1.691406 0.0625 1.234375 0.0625 Z M 1.234375 0.0625 "/></g></g></g><g fill="#ffffff" fill-opacity="1"><g transform="translate(30.482497, 7.282421)"><g><path d="M 0.125 0 L 0.84375 -3.390625 L 1.65625 -3.390625 L 1.5625 -2.921875 L 1.625 -2.921875 C 1.738281 -3.097656 1.878906 -3.226562 2.046875 -3.3125 C 2.222656 -3.40625 2.425781 -3.453125 2.65625 -3.453125 C 3.132812 -3.453125 3.425781 -3.253906 3.53125 -2.859375 L 3.59375 -2.859375 C 3.71875 -3.054688 3.867188 -3.203125 4.046875 -3.296875 C 4.222656 -3.398438 4.429688 -3.453125 4.671875 -3.453125 C 4.960938 -3.453125 5.179688 -3.375 5.328125 -3.21875 C 5.484375 -3.0625 5.5625 -2.847656 5.5625 -2.578125 C 5.5625 -2.453125 5.546875 -2.320312 5.515625 -2.1875 L 5.0625 0 L 4.203125 0 L 4.671875 -2.171875 C 4.679688 -2.234375 4.6875 -2.296875 4.6875 -2.359375 C 4.6875 -2.609375 4.546875 -2.734375 4.265625 -2.734375 C 4.046875 -2.734375 3.863281 -2.65625 3.71875 -2.5 C 3.570312 -2.351562 3.460938 -2.117188 3.390625 -1.796875 L 3.015625 0 L 2.171875 0 L 2.625 -2.171875 C 2.644531 -2.234375 2.65625 -2.296875 2.65625 -2.359375 C 2.65625 -2.609375 2.507812 -2.734375 2.21875 -2.734375 C 2.007812 -2.734375 1.832031 -2.660156 1.6875 -2.515625 C 1.539062 -2.367188 1.429688 -2.132812 1.359375 -1.8125 L 0.984375 0 Z M 0.125 0 "/></g></g></g><g fill="#ffffff" fill-opacity="1"><g transform="translate(36.936824, 7.282421)"><g><path d="M 1.34375 0.0625 C 1.144531 0.0625 0.960938 0.015625 0.796875 -0.078125 C 0.628906 -0.171875 0.492188 -0.3125 0.390625 -0.5 C 0.296875 -0.6875 0.25 -0.921875 0.25 -1.203125 C 0.25 -1.378906 0.273438 -1.570312 0.328125 -1.78125 C 0.441406 -2.320312 0.644531 -2.734375 0.9375 -3.015625 C 1.238281 -3.304688 1.609375 -3.453125 2.046875 -3.453125 C 2.253906 -3.453125 2.4375 -3.410156 2.59375 -3.328125 C 2.75 -3.253906 2.863281 -3.144531 2.9375 -3 L 3 -3.015625 L 3.078125 -3.390625 L 3.921875 -3.390625 L 3.203125 0 L 2.359375 0 L 2.453125 -0.4375 L 2.390625 -0.453125 C 2.253906 -0.285156 2.101562 -0.15625 1.9375 -0.0625 C 1.769531 0.0195312 1.570312 0.0625 1.34375 0.0625 Z M 1.734375 -0.65625 C 1.960938 -0.65625 2.164062 -0.738281 2.34375 -0.90625 C 2.519531 -1.070312 2.644531 -1.3125 2.71875 -1.625 C 2.738281 -1.78125 2.75 -1.914062 2.75 -2.03125 C 2.75 -2.257812 2.695312 -2.429688 2.59375 -2.546875 C 2.488281 -2.671875 2.347656 -2.734375 2.171875 -2.734375 C 1.921875 -2.734375 1.710938 -2.648438 1.546875 -2.484375 C 1.378906 -2.316406 1.257812 -2.066406 1.1875 -1.734375 C 1.15625 -1.585938 1.140625 -1.457031 1.140625 -1.34375 C 1.140625 -1.113281 1.191406 -0.941406 1.296875 -0.828125 C 1.398438 -0.710938 1.546875 -0.65625 1.734375 -0.65625 Z M 1.734375 -0.65625 "/></g></g></g><g fill="#ffffff" fill-opacity="1"><g transform="translate(41.592279, 7.282421)"><g><path d="M 0.125 0 L 0.84375 -3.390625 L 1.671875 -3.390625 L 1.5625 -2.875 L 1.625 -2.875 C 1.738281 -3.0625 1.867188 -3.195312 2.015625 -3.28125 C 2.160156 -3.363281 2.335938 -3.40625 2.546875 -3.40625 C 2.640625 -3.40625 2.722656 -3.394531 2.796875 -3.375 C 2.867188 -3.363281 2.925781 -3.34375 2.96875 -3.3125 L 2.6875 -2.578125 L 2.625 -2.5625 C 2.507812 -2.613281 2.390625 -2.640625 2.265625 -2.640625 C 1.773438 -2.640625 1.457031 -2.285156 1.3125 -1.578125 L 0.984375 0 Z M 0.125 0 "/></g></g></g><g fill="#ffffff" fill-opacity="1"><g transform="translate(44.887837, 7.282421)"><g><path d="M 1.6875 -2.71875 L 1.359375 -1.171875 C 1.347656 -1.109375 1.34375 -1.050781 1.34375 -1 C 1.34375 -0.894531 1.367188 -0.816406 1.421875 -0.765625 C 1.472656 -0.710938 1.550781 -0.6875 1.65625 -0.6875 C 1.726562 -0.6875 1.796875 -0.695312 1.859375 -0.71875 C 1.929688 -0.738281 2 -0.769531 2.0625 -0.8125 L 2.125 -0.8125 L 2.234375 -0.171875 C 2.128906 -0.0976562 2.015625 -0.0390625 1.890625 0 C 1.773438 0.0390625 1.613281 0.0625 1.40625 0.0625 C 1.226562 0.0625 1.066406 0.03125 0.921875 -0.03125 C 0.785156 -0.101562 0.675781 -0.207031 0.59375 -0.34375 C 0.507812 -0.476562 0.46875 -0.640625 0.46875 -0.828125 C 0.46875 -0.941406 0.484375 -1.066406 0.515625 -1.203125 L 0.828125 -2.71875 L 0.3125 -2.71875 L 0.46875 -3.390625 L 0.984375 -3.390625 L 1.125 -4.046875 L 2 -4.1875 L 1.828125 -3.390625 L 2.78125 -3.390625 L 2.640625 -2.71875 Z M 1.6875 -2.71875 "/></g></g></g><g fill="#ffffff" fill-opacity="1"><g transform="translate(48.075953, 7.282421)"><g><path d="M 3.4375 -2.359375 C 3.363281 -1.984375 3.160156 -1.710938 2.828125 -1.546875 C 2.492188 -1.390625 2.085938 -1.3125 1.609375 -1.3125 C 1.441406 -1.3125 1.285156 -1.316406 1.140625 -1.328125 C 1.148438 -1.097656 1.207031 -0.925781 1.3125 -0.8125 C 1.425781 -0.707031 1.582031 -0.65625 1.78125 -0.65625 C 1.96875 -0.65625 2.125 -0.691406 2.25 -0.765625 C 2.375 -0.835938 2.484375 -0.953125 2.578125 -1.109375 L 2.65625 -1.109375 L 3.203125 -0.734375 C 3.097656 -0.566406 2.976562 -0.425781 2.84375 -0.3125 C 2.71875 -0.195312 2.554688 -0.101562 2.359375 -0.03125 C 2.160156 0.03125 1.914062 0.0625 1.625 0.0625 C 1.363281 0.0625 1.128906 0.0078125 0.921875 -0.09375 C 0.722656 -0.207031 0.566406 -0.367188 0.453125 -0.578125 C 0.335938 -0.796875 0.28125 -1.050781 0.28125 -1.34375 C 0.28125 -1.507812 0.300781 -1.6875 0.34375 -1.875 C 0.414062 -2.207031 0.546875 -2.488281 0.734375 -2.71875 C 0.921875 -2.957031 1.144531 -3.140625 1.40625 -3.265625 C 1.664062 -3.390625 1.945312 -3.453125 2.25 -3.453125 C 2.507812 -3.453125 2.726562 -3.410156 2.90625 -3.328125 C 3.09375 -3.253906 3.234375 -3.144531 3.328125 -3 C 3.421875 -2.863281 3.46875 -2.71875 3.46875 -2.5625 C 3.46875 -2.488281 3.457031 -2.421875 3.4375 -2.359375 Z M 2.171875 -2.78125 C 2.046875 -2.78125 1.921875 -2.75 1.796875 -2.6875 C 1.671875 -2.632812 1.554688 -2.546875 1.453125 -2.421875 C 1.359375 -2.304688 1.285156 -2.160156 1.234375 -1.984375 C 1.390625 -1.972656 1.535156 -1.96875 1.671875 -1.96875 C 1.953125 -1.96875 2.175781 -2 2.34375 -2.0625 C 2.507812 -2.132812 2.609375 -2.257812 2.640625 -2.4375 C 2.648438 -2.457031 2.65625 -2.476562 2.65625 -2.5 C 2.65625 -2.582031 2.613281 -2.648438 2.53125 -2.703125 C 2.445312 -2.753906 2.328125 -2.78125 2.171875 -2.78125 Z M 2.171875 -2.78125 "/></g></g></g><g fill="#ffffff" fill-opacity="1"><g transform="translate(52.353829, 7.282421)"><g><path d="M 0.125 0 L 0.84375 -3.390625 L 1.671875 -3.390625 L 1.5625 -2.875 L 1.625 -2.875 C 1.738281 -3.0625 1.867188 -3.195312 2.015625 -3.28125 C 2.160156 -3.363281 2.335938 -3.40625 2.546875 -3.40625 C 2.640625 -3.40625 2.722656 -3.394531 2.796875 -3.375 C 2.867188 -3.363281 2.925781 -3.34375 2.96875 -3.3125 L 2.6875 -2.578125 L 2.625 -2.5625 C 2.507812 -2.613281 2.390625 -2.640625 2.265625 -2.640625 C 1.773438 -2.640625 1.457031 -2.285156 1.3125 -1.578125 L 0.984375 0 Z M 0.125 0 "/></g></g></g><g fill="#ffffff" fill-opacity="1"><g transform="translate(54.983251, 7.282421)"><g><path d="M 0.609375 0.03125 C 0.492188 0.03125 0.394531 0.0078125 0.3125 -0.03125 C 0.238281 -0.0820312 0.175781 -0.144531 0.125 -0.21875 C 0.0820312 -0.300781 0.0625 -0.390625 0.0625 -0.484375 C 0.0625 -0.578125 0.0820312 -0.660156 0.125 -0.734375 C 0.175781 -0.816406 0.238281 -0.878906 0.3125 -0.921875 C 0.394531 -0.972656 0.492188 -1 0.609375 -1 C 0.710938 -1 0.804688 -0.976562 0.890625 -0.9375 C 0.972656 -0.894531 1.035156 -0.832031 1.078125 -0.75 C 1.128906 -0.675781 1.15625 -0.585938 1.15625 -0.484375 C 1.15625 -0.335938 1.101562 -0.210938 1 -0.109375 C 0.90625 -0.015625 0.773438 0.03125 0.609375 0.03125 Z M 0.609375 0.03125 "/></g></g></g><g fill="#ffffff" fill-opacity="1"><g transform="translate(57.314908, 7.282421)"><g><path d="M 0.609375 0.03125 C 0.492188 0.03125 0.394531 0.0078125 0.3125 -0.03125 C 0.238281 -0.0820312 0.175781 -0.144531 0.125 -0.21875 C 0.0820312 -0.300781 0.0625 -0.390625 0.0625 -0.484375 C 0.0625 -0.578125 0.0820312 -0.660156 0.125 -0.734375 C 0.175781 -0.816406 0.238281 -0.878906 0.3125 -0.921875 C 0.394531 -0.972656 0.492188 -1 0.609375 -1 C 0.710938 -1 0.804688 -0.976562 0.890625 -0.9375 C 0.972656 -0.894531 1.035156 -0.832031 1.078125 -0.75 C 1.128906 -0.675781 1.15625 -0.585938 1.15625 -0.484375 C 1.15625 -0.335938 1.101562 -0.210938 1 -0.109375 C 0.90625 -0.015625 0.773438 0.03125 0.609375 0.03125 Z M 0.609375 0.03125 "/></g></g></g><g fill="#ffffff" fill-opacity="1"><g transform="translate(59.646565, 7.282421)"><g><path d="M 0.609375 0.03125 C 0.492188 0.03125 0.394531 0.0078125 0.3125 -0.03125 C 0.238281 -0.0820312 0.175781 -0.144531 0.125 -0.21875 C 0.0820312 -0.300781 0.0625 -0.390625 0.0625 -0.484375 C 0.0625 -0.578125 0.0820312 -0.660156 0.125 -0.734375 C 0.175781 -0.816406 0.238281 -0.878906 0.3125 -0.921875 C 0.394531 -0.972656 0.492188 -1 0.609375 -1 C 0.710938 -1 0.804688 -0.976562 0.890625 -0.9375 C 0.972656 -0.894531 1.035156 -0.832031 1.078125 -0.75 C 1.128906 -0.675781 1.15625 -0.585938 1.15625 -0.484375 C 1.15625 -0.335938 1.101562 -0.210938 1 -0.109375 C 0.90625 -0.015625 0.773438 0.03125 0.609375 0.03125 Z M 0.609375 0.03125 "/></g></g></g></g></g></svg>