<svg xmlns="http://www.w3.org/2000/svg" xmlns:xlink="http://www.w3.org/1999/xlink" width="500" zoomAndPan="magnify" viewBox="0 0 375 374.999991" height="500" preserveAspectRatio="xMidYMid meet" version="1.0"><defs><clipPath id="181ac5a852"><path d="M 37.5 64.773438 L 337.5 64.773438 L 337.5 310.023438 L 37.5 310.023438 Z M 37.5 64.773438 " clip-rule="nonzero"/></clipPath><clipPath id="0f5ebcda72"><path d="M 0.5 0.773438 L 300.5 0.773438 L 300.5 246.023438 L 0.5 246.023438 Z M 0.5 0.773438 " clip-rule="nonzero"/></clipPath><clipPath id="19fdda3959"><rect x="0" width="301" y="0" height="247"/></clipPath></defs><g clip-path="url(#181ac5a852)"><g transform="matrix(1, 0, 0, 1, 37, 64)"><g clip-path="url(#19fdda3959)"><g clip-path="url(#0f5ebcda72)"><path fill="#ff5757" d="M 245.953125 139.589844 L 245.953125 194.132812 L 150.5 246.222656 L 55.046875 194.132812 L 55.046875 139.589844 L 150.5 191.675781 Z M 150.5 0.773438 L 300.496094 82.589844 L 150.5 164.40625 L 27.773438 97.453125 L 27.773438 191.675781 L 0.503906 191.675781 L 0.503906 82.589844 Z M 150.5 0.773438 " fill-opacity="1" fill-rule="nonzero"/></g></g></g></g></svg>